<?xml version="1.0" encoding="UTF-8"?>
<svg xmlns="http://www.w3.org/2000/svg" xmlns:xlink="http://www.w3.org/1999/xlink" width="272pt" height="224pt" viewBox="0 0 272 224" version="1.1">
<g id="surface1">
<path style="fill:none;stroke-width:1.3;stroke-linecap:butt;stroke-linejoin:miter;stroke:rgb(0%,0%,0%);stroke-opacity:1;stroke-miterlimit:10;" d="M 104 8 L 120 8 "/>
<path style="fill:none;stroke-width:1.3;stroke-linecap:butt;stroke-linejoin:miter;stroke:rgb(0%,0%,0%);stroke-opacity:1;stroke-miterlimit:10;" d="M 258 16 C 258 18.667969 254 18.667969 254 16 C 254 13.332031 258 13.332031 258 16 M 254 16 L 248 16 "/>
<path style="fill:none;stroke-width:1.3;stroke-linecap:butt;stroke-linejoin:miter;stroke:rgb(0%,0%,0%);stroke-opacity:1;stroke-miterlimit:10;" d="M 258 32 C 258 34.667969 254 34.667969 254 32 C 254 29.332031 258 29.332031 258 32 M 254 32 L 248 32 "/>
<path style="fill:none;stroke-width:1.3;stroke-linecap:butt;stroke-linejoin:miter;stroke:rgb(0%,0%,0%);stroke-opacity:1;stroke-miterlimit:10;" d="M 258 48 C 258 50.667969 254 50.667969 254 48 C 254 45.332031 258 45.332031 258 48 M 254 48 L 248 48 "/>
<path style="fill-rule:nonzero;fill:rgb(100%,100%,80%);fill-opacity:1;stroke-width:1.3;stroke-linecap:butt;stroke-linejoin:miter;stroke:rgb(0%,0%,0%);stroke-opacity:1;stroke-miterlimit:10;" d="M 104 16 L 120 16 L 120 40 L 104 40 Z "/>
<path style="fill-rule:nonzero;fill:rgb(100%,100%,80%);fill-opacity:1;stroke-width:1.3;stroke-linecap:butt;stroke-linejoin:miter;stroke:rgb(0%,0%,0%);stroke-opacity:1;stroke-miterlimit:10;" d="M 152 8 L 168 8 L 168 40 L 152 40 Z "/>
<path style="fill:none;stroke-width:1.3;stroke-linecap:butt;stroke-linejoin:miter;stroke:rgb(0%,0%,0%);stroke-opacity:1;stroke-miterlimit:10;" d="M 18 16 C 18 18.667969 14 18.667969 14 16 C 14 13.332031 18 13.332031 18 16 L 24 16 "/>
<path style="fill:none;stroke-width:1.3;stroke-linecap:butt;stroke-linejoin:miter;stroke:rgb(0%,0%,0%);stroke-opacity:1;stroke-miterlimit:10;" d="M 258 64 C 258 66.667969 254 66.667969 254 64 C 254 61.332031 258 61.332031 258 64 M 254 64 L 248 64 "/>
<path style="fill:none;stroke-width:1.3;stroke-linecap:butt;stroke-linejoin:miter;stroke:rgb(0%,0%,0%);stroke-opacity:1;stroke-miterlimit:10;" d="M 56 8 L 72 8 "/>
<path style="fill:none;stroke-width:1.3;stroke-linecap:butt;stroke-linejoin:miter;stroke:rgb(0%,0%,0%);stroke-opacity:1;stroke-miterlimit:10;" d="M 104 48 L 120 48 "/>
<path style="fill:none;stroke-width:1.3;stroke-linecap:butt;stroke-linejoin:miter;stroke:rgb(0%,0%,0%);stroke-opacity:1;stroke-miterlimit:10;" d="M 152 48 L 168 48 "/>
<path style="fill:none;stroke-width:1.3;stroke-linecap:butt;stroke-linejoin:miter;stroke:rgb(0%,0%,0%);stroke-opacity:1;stroke-miterlimit:10;" d="M 56 16 L 72 16 "/>
<path style="fill:none;stroke-width:1.3;stroke-linecap:butt;stroke-linejoin:miter;stroke:rgb(0%,0%,0%);stroke-opacity:1;stroke-miterlimit:10;" d="M 152 56 L 168 56 "/>
<path style="fill:none;stroke-width:1.3;stroke-linecap:butt;stroke-linejoin:miter;stroke:rgb(0%,0%,0%);stroke-opacity:1;stroke-miterlimit:10;" d="M 56 24 L 72 24 "/>
<path style="fill:none;stroke-width:1.3;stroke-linecap:butt;stroke-linejoin:miter;stroke:rgb(0%,0%,0%);stroke-opacity:1;stroke-miterlimit:10;" d="M 104 56 L 120 56 "/>
<path style="fill:none;stroke-width:1.3;stroke-linecap:butt;stroke-linejoin:miter;stroke:rgb(0%,0%,0%);stroke-opacity:1;stroke-miterlimit:10;" d="M 152 64 L 168 64 "/>
<path style="fill:none;stroke-width:1.3;stroke-linecap:butt;stroke-linejoin:miter;stroke:rgb(0%,0%,0%);stroke-opacity:1;stroke-miterlimit:10;" d="M 18 32 C 18 34.667969 14 34.667969 14 32 C 14 29.332031 18 29.332031 18 32 L 24 32 "/>
<path style="fill:none;stroke-width:1.3;stroke-linecap:butt;stroke-linejoin:miter;stroke:rgb(0%,0%,0%);stroke-opacity:1;stroke-miterlimit:10;" d="M 18 48 C 18 50.667969 14 50.667969 14 48 C 14 45.332031 18 45.332031 18 48 L 24 48 "/>
<path style="fill:none;stroke-width:1.3;stroke-linecap:butt;stroke-linejoin:miter;stroke:rgb(0%,0%,0%);stroke-opacity:1;stroke-miterlimit:10;" d="M 18 64 C 18 66.667969 14 66.667969 14 64 C 14 61.332031 18 61.332031 18 64 L 24 64 "/>
<path style="fill:none;stroke-width:1.3;stroke-linecap:butt;stroke-linejoin:miter;stroke:rgb(0%,0%,0%);stroke-opacity:1;stroke-miterlimit:10;" d="M 18 80 C 18 82.667969 14 82.667969 14 80 C 14 77.332031 18 77.332031 18 80 L 24 80 "/>
<path style="fill:none;stroke-width:1.3;stroke-linecap:butt;stroke-linejoin:miter;stroke:rgb(0%,0%,0%);stroke-opacity:1;stroke-miterlimit:10;" d="M 18 96 C 18 98.667969 14 98.667969 14 96 C 14 93.332031 18 93.332031 18 96 L 24 96 "/>
<path style="fill-rule:nonzero;fill:rgb(100%,100%,80%);fill-opacity:1;stroke-width:1.3;stroke-linecap:butt;stroke-linejoin:miter;stroke:rgb(0%,0%,0%);stroke-opacity:1;stroke-miterlimit:10;" d="M 56 32 L 72 32 L 72 56 L 56 56 Z "/>
<path style="fill:none;stroke-width:1.3;stroke-linecap:butt;stroke-linejoin:miter;stroke:rgb(0%,0%,0%);stroke-opacity:1;stroke-miterlimit:10;" d="M 18 112 C 18 114.667969 14 114.667969 14 112 C 14 109.332031 18 109.332031 18 112 L 24 112 "/>
<path style="fill-rule:nonzero;fill:rgb(100%,100%,80%);fill-opacity:1;stroke-width:1.3;stroke-linecap:butt;stroke-linejoin:miter;stroke:rgb(0%,0%,0%);stroke-opacity:1;stroke-miterlimit:10;" d="M 152 72 L 168 72 L 168 96 L 152 96 Z "/>
<path style="fill-rule:nonzero;fill:rgb(100%,100%,80%);fill-opacity:1;stroke-width:1.3;stroke-linecap:butt;stroke-linejoin:miter;stroke:rgb(0%,0%,0%);stroke-opacity:1;stroke-miterlimit:10;" d="M 104 64 L 120 64 L 120 88 L 104 88 Z "/>
<path style="fill:none;stroke-width:1.3;stroke-linecap:butt;stroke-linejoin:miter;stroke:rgb(0%,0%,0%);stroke-opacity:1;stroke-miterlimit:10;" d="M 104 96 L 120 96 "/>
<path style="fill:none;stroke-width:1.3;stroke-linecap:butt;stroke-linejoin:miter;stroke:rgb(0%,0%,0%);stroke-opacity:1;stroke-miterlimit:10;" d="M 56 64 L 72 64 "/>
<path style="fill:none;stroke-width:1.3;stroke-linecap:butt;stroke-linejoin:miter;stroke:rgb(0%,0%,0%);stroke-opacity:1;stroke-miterlimit:10;" d="M 56 72 L 72 72 "/>
<path style="fill:none;stroke-width:1.3;stroke-linecap:butt;stroke-linejoin:miter;stroke:rgb(0%,0%,0%);stroke-opacity:1;stroke-miterlimit:10;" d="M 152 104 L 168 104 "/>
<path style="fill:none;stroke-width:1.3;stroke-linecap:butt;stroke-linejoin:miter;stroke:rgb(0%,0%,0%);stroke-opacity:1;stroke-miterlimit:10;" d="M 56 80 L 72 80 "/>
<path style="fill:none;stroke-width:1.3;stroke-linecap:butt;stroke-linejoin:miter;stroke:rgb(0%,0%,0%);stroke-opacity:1;stroke-miterlimit:10;" d="M 104 104 L 120 104 "/>
<path style="fill:none;stroke-width:1.3;stroke-linecap:butt;stroke-linejoin:miter;stroke:rgb(0%,0%,0%);stroke-opacity:1;stroke-miterlimit:10;" d="M 104 112 L 120 112 "/>
<path style="fill:none;stroke-width:1.3;stroke-linecap:butt;stroke-linejoin:miter;stroke:rgb(0%,0%,0%);stroke-opacity:1;stroke-miterlimit:10;" d="M 56 88 L 72 88 "/>
<path style="fill:none;stroke-width:1.3;stroke-linecap:butt;stroke-linejoin:miter;stroke:rgb(0%,0%,0%);stroke-opacity:1;stroke-miterlimit:10;" d="M 104 120 L 120 120 "/>
<path style="fill:none;stroke-width:1.3;stroke-linecap:butt;stroke-linejoin:miter;stroke:rgb(0%,0%,0%);stroke-opacity:1;stroke-miterlimit:10;" d="M 56 96 L 72 96 "/>
<path style="fill:none;stroke-width:1.3;stroke-linecap:butt;stroke-linejoin:miter;stroke:rgb(0%,0%,0%);stroke-opacity:1;stroke-miterlimit:10;" d="M 104 128 L 120 128 "/>
<path style="fill-rule:nonzero;fill:rgb(100%,100%,80%);fill-opacity:1;stroke-width:1.3;stroke-linecap:butt;stroke-linejoin:miter;stroke:rgb(0%,0%,0%);stroke-opacity:1;stroke-miterlimit:10;" d="M 56 104 L 72 104 L 72 128 L 56 128 Z "/>
<path style="fill-rule:nonzero;fill:rgb(100%,100%,80%);fill-opacity:1;stroke-width:1.3;stroke-linecap:butt;stroke-linejoin:miter;stroke:rgb(0%,0%,0%);stroke-opacity:1;stroke-miterlimit:10;" d="M 200 8 L 216 8 L 216 40 L 200 40 Z "/>
<path style="fill-rule:nonzero;fill:rgb(100%,100%,80%);fill-opacity:1;stroke-width:1.3;stroke-linecap:butt;stroke-linejoin:miter;stroke:rgb(0%,0%,0%);stroke-opacity:1;stroke-miterlimit:10;" d="M 152 112 L 168 112 L 168 136 L 152 136 Z "/>
<path style="fill-rule:nonzero;fill:rgb(100%,100%,80%);fill-opacity:1;stroke-width:1.3;stroke-linecap:butt;stroke-linejoin:miter;stroke:rgb(0%,0%,0%);stroke-opacity:1;stroke-miterlimit:10;" d="M 104 136 L 120 136 L 120 160 L 104 160 Z "/>
<path style="fill-rule:nonzero;fill:rgb(100%,100%,80%);fill-opacity:1;stroke-width:1.3;stroke-linecap:butt;stroke-linejoin:miter;stroke:rgb(0%,0%,0%);stroke-opacity:1;stroke-miterlimit:10;" d="M 56 136 L 72 136 L 72 160 L 56 160 Z "/>
<path style="fill-rule:nonzero;fill:rgb(100%,100%,80%);fill-opacity:1;stroke-width:1.3;stroke-linecap:butt;stroke-linejoin:miter;stroke:rgb(0%,0%,0%);stroke-opacity:1;stroke-miterlimit:10;" d="M 200 48 L 216 48 L 216 80 L 200 80 Z "/>
<path style="fill-rule:nonzero;fill:rgb(100%,100%,80%);fill-opacity:1;stroke-width:1.3;stroke-linecap:butt;stroke-linejoin:miter;stroke:rgb(0%,0%,0%);stroke-opacity:1;stroke-miterlimit:10;" d="M 152 144 L 168 144 L 168 168 L 152 168 Z "/>
<path style="fill-rule:nonzero;fill:rgb(100%,100%,80%);fill-opacity:1;stroke-width:1.3;stroke-linecap:butt;stroke-linejoin:miter;stroke:rgb(0%,0%,0%);stroke-opacity:1;stroke-miterlimit:10;" d="M 104 168 L 120 168 L 120 192 L 104 192 Z "/>
<path style="fill-rule:nonzero;fill:rgb(100%,100%,80%);fill-opacity:1;stroke-width:1.3;stroke-linecap:butt;stroke-linejoin:miter;stroke:rgb(0%,0%,0%);stroke-opacity:1;stroke-miterlimit:10;" d="M 56 168 L 72 168 L 72 184 L 56 184 Z "/>
<path style="fill-rule:nonzero;fill:rgb(100%,100%,80%);fill-opacity:1;stroke-width:1.3;stroke-linecap:butt;stroke-linejoin:miter;stroke:rgb(0%,0%,0%);stroke-opacity:1;stroke-miterlimit:10;" d="M 200 88 L 216 88 L 216 120 L 200 120 Z "/>
<path style="fill:none;stroke-width:1.3;stroke-linecap:butt;stroke-linejoin:miter;stroke:rgb(0%,0%,0%);stroke-opacity:1;stroke-miterlimit:10;" d="M 104 200 L 120 200 "/>
<path style="fill:none;stroke-width:1.3;stroke-linecap:butt;stroke-linejoin:miter;stroke:rgb(0%,0%,0%);stroke-opacity:1;stroke-miterlimit:10;" d="M 104 208 L 120 208 "/>
<path style="fill:none;stroke-width:1.3;stroke-linecap:butt;stroke-linejoin:miter;stroke:rgb(0%,0%,0%);stroke-opacity:1;stroke-miterlimit:10;" d="M 56 192 L 72 192 "/>
<path style="fill:none;stroke-width:1.3;stroke-linecap:butt;stroke-linejoin:miter;stroke:rgb(0%,0%,0%);stroke-opacity:1;stroke-miterlimit:10;" d="M 56 200 L 72 200 "/>
<path style="fill:none;stroke-width:1.3;stroke-linecap:butt;stroke-linejoin:miter;stroke:rgb(0%,0%,0%);stroke-opacity:1;stroke-miterlimit:10;" d="M 152 176 L 168 176 "/>
<path style="fill:none;stroke-width:1.3;stroke-linecap:butt;stroke-linejoin:miter;stroke:rgb(0%,0%,0%);stroke-opacity:1;stroke-miterlimit:10;" d="M 200 128 L 216 128 "/>
<path style="fill:none;stroke-width:1.3;stroke-linecap:butt;stroke-linejoin:miter;stroke:rgb(0%,0%,0%);stroke-opacity:1;stroke-miterlimit:10;" d="M 56 208 L 72 208 "/>
<path style="fill:none;stroke-width:1.3;stroke-linecap:butt;stroke-linejoin:miter;stroke:rgb(0%,0%,0%);stroke-opacity:1;stroke-miterlimit:10;" d="M 56 216 L 72 216 "/>
<path style="fill:none;stroke-width:1.3;stroke-linecap:butt;stroke-linejoin:miter;stroke:rgb(0%,0%,0%);stroke-opacity:1;stroke-miterlimit:10;" d="M 152 184 L 168 184 "/>
<path style="fill:none;stroke-width:1.3;stroke-linecap:butt;stroke-linejoin:miter;stroke:rgb(0%,0%,0%);stroke-opacity:1;stroke-miterlimit:10;" d="M 104 216 L 120 216 "/>
<path style="fill:none;stroke-width:1.3;stroke-linecap:butt;stroke-linejoin:miter;stroke:rgb(56%,69%,85%);stroke-opacity:1;stroke-miterlimit:10;" d="M 120 8 L 152 32 "/>
<path style="fill:none;stroke-width:1.3;stroke-linecap:butt;stroke-linejoin:miter;stroke:rgb(56%,69%,85%);stroke-opacity:1;stroke-miterlimit:10;" d="M 120 24 L 152 24 "/>
<path style="fill:none;stroke-width:1.3;stroke-linecap:butt;stroke-linejoin:miter;stroke:rgb(56%,69%,85%);stroke-opacity:1;stroke-miterlimit:10;" d="M 168 16 L 200 128 "/>
<path style="fill:none;stroke-width:1.3;stroke-linecap:butt;stroke-linejoin:miter;stroke:rgb(56%,69%,85%);stroke-opacity:1;stroke-miterlimit:10;" d="M 24 16 L 56 48 "/>
<path style="fill:none;stroke-width:1.3;stroke-linecap:butt;stroke-linejoin:miter;stroke:rgb(56%,69%,85%);stroke-opacity:1;stroke-miterlimit:10;" d="M 24 16 L 56 120 "/>
<path style="fill:none;stroke-width:1.3;stroke-linecap:butt;stroke-linejoin:miter;stroke:rgb(56%,69%,85%);stroke-opacity:1;stroke-miterlimit:10;" d="M 24 16 L 56 144 "/>
<path style="fill:none;stroke-width:1.3;stroke-linecap:butt;stroke-linejoin:miter;stroke:rgb(56%,69%,85%);stroke-opacity:1;stroke-miterlimit:10;" d="M 24 16 L 56 176 "/>
<path style="fill:none;stroke-width:1.3;stroke-linecap:butt;stroke-linejoin:miter;stroke:rgb(56%,69%,85%);stroke-opacity:1;stroke-miterlimit:10;" d="M 72 8 L 104 48 "/>
<path style="fill:none;stroke-width:1.3;stroke-linecap:butt;stroke-linejoin:miter;stroke:rgb(56%,69%,85%);stroke-opacity:1;stroke-miterlimit:10;" d="M 120 48 L 152 48 "/>
<path style="fill:none;stroke-width:1.3;stroke-linecap:butt;stroke-linejoin:miter;stroke:rgb(56%,69%,85%);stroke-opacity:1;stroke-miterlimit:10;" d="M 168 48 L 200 112 "/>
<path style="fill:none;stroke-width:1.3;stroke-linecap:butt;stroke-linejoin:miter;stroke:rgb(56%,69%,85%);stroke-opacity:1;stroke-miterlimit:10;" d="M 72 16 L 104 8 "/>
<path style="fill:none;stroke-width:1.3;stroke-linecap:butt;stroke-linejoin:miter;stroke:rgb(56%,69%,85%);stroke-opacity:1;stroke-miterlimit:10;" d="M 168 56 L 200 32 "/>
<path style="fill:none;stroke-width:1.3;stroke-linecap:butt;stroke-linejoin:miter;stroke:rgb(56%,69%,85%);stroke-opacity:1;stroke-miterlimit:10;" d="M 72 24 L 104 56 "/>
<path style="fill:none;stroke-width:1.3;stroke-linecap:butt;stroke-linejoin:miter;stroke:rgb(56%,69%,85%);stroke-opacity:1;stroke-miterlimit:10;" d="M 120 56 L 152 64 "/>
<path style="fill:none;stroke-width:1.3;stroke-linecap:butt;stroke-linejoin:miter;stroke:rgb(56%,69%,85%);stroke-opacity:1;stroke-miterlimit:10;" d="M 168 64 L 200 72 "/>
<path style="fill:none;stroke-width:1.3;stroke-linecap:butt;stroke-linejoin:miter;stroke:rgb(56%,69%,85%);stroke-opacity:1;stroke-miterlimit:10;" d="M 24 32 L 56 40 "/>
<path style="fill:none;stroke-width:1.3;stroke-linecap:butt;stroke-linejoin:miter;stroke:rgb(56%,69%,85%);stroke-opacity:1;stroke-miterlimit:10;" d="M 24 48 L 56 216 "/>
<path style="fill:none;stroke-width:1.3;stroke-linecap:butt;stroke-linejoin:miter;stroke:rgb(56%,69%,85%);stroke-opacity:1;stroke-miterlimit:10;" d="M 24 48 L 56 152 "/>
<path style="fill:none;stroke-width:1.3;stroke-linecap:butt;stroke-linejoin:miter;stroke:rgb(56%,69%,85%);stroke-opacity:1;stroke-miterlimit:10;" d="M 24 64 L 56 208 "/>
<path style="fill:none;stroke-width:1.3;stroke-linecap:butt;stroke-linejoin:miter;stroke:rgb(56%,69%,85%);stroke-opacity:1;stroke-miterlimit:10;" d="M 24 64 L 56 112 "/>
<path style="fill:none;stroke-width:1.3;stroke-linecap:butt;stroke-linejoin:miter;stroke:rgb(56%,69%,85%);stroke-opacity:1;stroke-miterlimit:10;" d="M 24 80 L 56 192 "/>
<path style="fill:none;stroke-width:1.3;stroke-linecap:butt;stroke-linejoin:miter;stroke:rgb(56%,69%,85%);stroke-opacity:1;stroke-miterlimit:10;" d="M 24 80 L 56 200 "/>
<path style="fill:none;stroke-width:1.3;stroke-linecap:butt;stroke-linejoin:miter;stroke:rgb(56%,69%,85%);stroke-opacity:1;stroke-miterlimit:10;" d="M 24 80 L 56 64 "/>
<path style="fill:none;stroke-width:1.3;stroke-linecap:butt;stroke-linejoin:miter;stroke:rgb(56%,69%,85%);stroke-opacity:1;stroke-miterlimit:10;" d="M 24 80 L 56 72 "/>
<path style="fill:none;stroke-width:1.3;stroke-linecap:butt;stroke-linejoin:miter;stroke:rgb(56%,69%,85%);stroke-opacity:1;stroke-miterlimit:10;" d="M 24 96 L 56 80 "/>
<path style="fill:none;stroke-width:1.3;stroke-linecap:butt;stroke-linejoin:miter;stroke:rgb(56%,69%,85%);stroke-opacity:1;stroke-miterlimit:10;" d="M 24 96 L 56 88 "/>
<path style="fill:none;stroke-width:1.3;stroke-linecap:butt;stroke-linejoin:miter;stroke:rgb(56%,69%,85%);stroke-opacity:1;stroke-miterlimit:10;" d="M 72 40 L 104 112 "/>
<path style="fill:none;stroke-width:1.3;stroke-linecap:butt;stroke-linejoin:miter;stroke:rgb(56%,69%,85%);stroke-opacity:1;stroke-miterlimit:10;" d="M 24 112 L 56 96 "/>
<path style="fill:none;stroke-width:1.3;stroke-linecap:butt;stroke-linejoin:miter;stroke:rgb(56%,69%,85%);stroke-opacity:1;stroke-miterlimit:10;" d="M 24 112 L 56 24 "/>
<path style="fill:none;stroke-width:1.3;stroke-linecap:butt;stroke-linejoin:miter;stroke:rgb(56%,69%,85%);stroke-opacity:1;stroke-miterlimit:10;" d="M 24 112 L 56 8 "/>
<path style="fill:none;stroke-width:1.3;stroke-linecap:butt;stroke-linejoin:miter;stroke:rgb(56%,69%,85%);stroke-opacity:1;stroke-miterlimit:10;" d="M 24 112 L 56 16 "/>
<path style="fill:none;stroke-width:1.3;stroke-linecap:butt;stroke-linejoin:miter;stroke:rgb(56%,69%,85%);stroke-opacity:1;stroke-miterlimit:10;" d="M 168 80 L 200 24 "/>
<path style="fill:none;stroke-width:1.3;stroke-linecap:butt;stroke-linejoin:miter;stroke:rgb(56%,69%,85%);stroke-opacity:1;stroke-miterlimit:10;" d="M 120 72 L 152 88 "/>
<path style="fill:none;stroke-width:1.3;stroke-linecap:butt;stroke-linejoin:miter;stroke:rgb(56%,69%,85%);stroke-opacity:1;stroke-miterlimit:10;" d="M 120 96 L 152 104 "/>
<path style="fill:none;stroke-width:1.3;stroke-linecap:butt;stroke-linejoin:miter;stroke:rgb(56%,69%,85%);stroke-opacity:1;stroke-miterlimit:10;" d="M 72 64 L 104 96 "/>
<path style="fill:none;stroke-width:1.3;stroke-linecap:butt;stroke-linejoin:miter;stroke:rgb(56%,69%,85%);stroke-opacity:1;stroke-miterlimit:10;" d="M 72 72 L 104 104 "/>
<path style="fill:none;stroke-width:1.3;stroke-linecap:butt;stroke-linejoin:miter;stroke:rgb(56%,69%,85%);stroke-opacity:1;stroke-miterlimit:10;" d="M 168 104 L 200 96 "/>
<path style="fill:none;stroke-width:1.3;stroke-linecap:butt;stroke-linejoin:miter;stroke:rgb(56%,69%,85%);stroke-opacity:1;stroke-miterlimit:10;" d="M 72 80 L 104 184 "/>
<path style="fill:none;stroke-width:1.3;stroke-linecap:butt;stroke-linejoin:miter;stroke:rgb(56%,69%,85%);stroke-opacity:1;stroke-miterlimit:10;" d="M 120 104 L 152 16 "/>
<path style="fill:none;stroke-width:1.3;stroke-linecap:butt;stroke-linejoin:miter;stroke:rgb(56%,69%,85%);stroke-opacity:1;stroke-miterlimit:10;" d="M 120 112 L 152 80 "/>
<path style="fill:none;stroke-width:1.3;stroke-linecap:butt;stroke-linejoin:miter;stroke:rgb(56%,69%,85%);stroke-opacity:1;stroke-miterlimit:10;" d="M 72 88 L 104 32 "/>
<path style="fill:none;stroke-width:1.3;stroke-linecap:butt;stroke-linejoin:miter;stroke:rgb(56%,69%,85%);stroke-opacity:1;stroke-miterlimit:10;" d="M 120 120 L 152 56 "/>
<path style="fill:none;stroke-width:1.3;stroke-linecap:butt;stroke-linejoin:miter;stroke:rgb(56%,69%,85%);stroke-opacity:1;stroke-miterlimit:10;" d="M 72 96 L 104 120 "/>
<path style="fill:none;stroke-width:1.3;stroke-linecap:butt;stroke-linejoin:miter;stroke:rgb(56%,69%,85%);stroke-opacity:1;stroke-miterlimit:10;" d="M 120 128 L 152 120 "/>
<path style="fill:none;stroke-width:1.3;stroke-linecap:butt;stroke-linejoin:miter;stroke:rgb(56%,69%,85%);stroke-opacity:1;stroke-miterlimit:10;" d="M 72 112 L 104 128 "/>
<path style="fill:none;stroke-width:1.3;stroke-linecap:butt;stroke-linejoin:miter;stroke:rgb(56%,69%,85%);stroke-opacity:1;stroke-miterlimit:10;" d="M 216 16 L 248 64 "/>
<path style="fill:none;stroke-width:1.3;stroke-linecap:butt;stroke-linejoin:miter;stroke:rgb(56%,69%,85%);stroke-opacity:1;stroke-miterlimit:10;" d="M 168 120 L 200 64 "/>
<path style="fill:none;stroke-width:1.3;stroke-linecap:butt;stroke-linejoin:miter;stroke:rgb(56%,69%,85%);stroke-opacity:1;stroke-miterlimit:10;" d="M 120 144 L 152 128 "/>
<path style="fill:none;stroke-width:1.3;stroke-linecap:butt;stroke-linejoin:miter;stroke:rgb(56%,69%,85%);stroke-opacity:1;stroke-miterlimit:10;" d="M 72 144 L 104 200 "/>
<path style="fill:none;stroke-width:1.3;stroke-linecap:butt;stroke-linejoin:miter;stroke:rgb(56%,69%,85%);stroke-opacity:1;stroke-miterlimit:10;" d="M 216 56 L 248 16 "/>
<path style="fill:none;stroke-width:1.3;stroke-linecap:butt;stroke-linejoin:miter;stroke:rgb(56%,69%,85%);stroke-opacity:1;stroke-miterlimit:10;" d="M 168 152 L 200 104 "/>
<path style="fill:none;stroke-width:1.3;stroke-linecap:butt;stroke-linejoin:miter;stroke:rgb(56%,69%,85%);stroke-opacity:1;stroke-miterlimit:10;" d="M 120 176 L 152 160 "/>
<path style="fill:none;stroke-width:1.3;stroke-linecap:butt;stroke-linejoin:miter;stroke:rgb(56%,69%,85%);stroke-opacity:1;stroke-miterlimit:10;" d="M 72 176 L 104 80 "/>
<path style="fill:none;stroke-width:1.3;stroke-linecap:butt;stroke-linejoin:miter;stroke:rgb(56%,69%,85%);stroke-opacity:1;stroke-miterlimit:10;" d="M 72 176 L 104 144 "/>
<path style="fill:none;stroke-width:1.3;stroke-linecap:butt;stroke-linejoin:miter;stroke:rgb(56%,69%,85%);stroke-opacity:1;stroke-miterlimit:10;" d="M 72 176 L 104 176 "/>
<path style="fill:none;stroke-width:1.3;stroke-linecap:butt;stroke-linejoin:miter;stroke:rgb(56%,69%,85%);stroke-opacity:1;stroke-miterlimit:10;" d="M 72 176 L 104 24 "/>
<path style="fill:none;stroke-width:1.3;stroke-linecap:butt;stroke-linejoin:miter;stroke:rgb(56%,69%,85%);stroke-opacity:1;stroke-miterlimit:10;" d="M 216 96 L 248 32 "/>
<path style="fill:none;stroke-width:1.3;stroke-linecap:butt;stroke-linejoin:miter;stroke:rgb(56%,69%,85%);stroke-opacity:1;stroke-miterlimit:10;" d="M 120 200 L 152 152 "/>
<path style="fill:none;stroke-width:1.3;stroke-linecap:butt;stroke-linejoin:miter;stroke:rgb(56%,69%,85%);stroke-opacity:1;stroke-miterlimit:10;" d="M 120 208 L 152 176 "/>
<path style="fill:none;stroke-width:1.3;stroke-linecap:butt;stroke-linejoin:miter;stroke:rgb(56%,69%,85%);stroke-opacity:1;stroke-miterlimit:10;" d="M 72 192 L 104 208 "/>
<path style="fill:none;stroke-width:1.3;stroke-linecap:butt;stroke-linejoin:miter;stroke:rgb(56%,69%,85%);stroke-opacity:1;stroke-miterlimit:10;" d="M 72 200 L 104 216 "/>
<path style="fill:none;stroke-width:1.3;stroke-linecap:butt;stroke-linejoin:miter;stroke:rgb(56%,69%,85%);stroke-opacity:1;stroke-miterlimit:10;" d="M 168 176 L 200 16 "/>
<path style="fill:none;stroke-width:1.3;stroke-linecap:butt;stroke-linejoin:miter;stroke:rgb(56%,69%,85%);stroke-opacity:1;stroke-miterlimit:10;" d="M 216 128 L 248 48 "/>
<path style="fill:none;stroke-width:1.3;stroke-linecap:butt;stroke-linejoin:miter;stroke:rgb(56%,69%,85%);stroke-opacity:1;stroke-miterlimit:10;" d="M 72 208 L 104 72 "/>
<path style="fill:none;stroke-width:1.3;stroke-linecap:butt;stroke-linejoin:miter;stroke:rgb(56%,69%,85%);stroke-opacity:1;stroke-miterlimit:10;" d="M 72 216 L 104 152 "/>
<path style="fill:none;stroke-width:1.3;stroke-linecap:butt;stroke-linejoin:miter;stroke:rgb(56%,69%,85%);stroke-opacity:1;stroke-miterlimit:10;" d="M 168 184 L 200 56 "/>
<path style="fill:none;stroke-width:1.3;stroke-linecap:butt;stroke-linejoin:miter;stroke:rgb(56%,69%,85%);stroke-opacity:1;stroke-miterlimit:10;" d="M 120 216 L 152 184 "/>
</g>
</svg>
