<?xml version="1.0" encoding="UTF-8"?>
<svg xmlns="http://www.w3.org/2000/svg" xmlns:xlink="http://www.w3.org/1999/xlink" width="272pt" height="144pt" viewBox="0 0 272 144" version="1.1">
<g id="surface1">
<path style="fill:none;stroke-width:1.3;stroke-linecap:butt;stroke-linejoin:miter;stroke:rgb(0%,0%,0%);stroke-opacity:1;stroke-miterlimit:10;" d="M 258 16 C 258 18.667969 254 18.667969 254 16 C 254 13.332031 258 13.332031 258 16 M 254 16 L 248 16 "/>
<path style="fill:none;stroke-width:1.3;stroke-linecap:butt;stroke-linejoin:miter;stroke:rgb(0%,0%,0%);stroke-opacity:1;stroke-miterlimit:10;" d="M 258 32 C 258 34.667969 254 34.667969 254 32 C 254 29.332031 258 29.332031 258 32 M 254 32 L 248 32 "/>
<path style="fill:none;stroke-width:1.3;stroke-linecap:butt;stroke-linejoin:miter;stroke:rgb(0%,0%,0%);stroke-opacity:1;stroke-miterlimit:10;" d="M 210 16 C 210 18.667969 206 18.667969 206 16 C 206 13.332031 210 13.332031 210 16 M 206 16 L 200 16 "/>
<path style="fill-rule:nonzero;fill:rgb(100%,100%,80%);fill-opacity:1;stroke-width:1.3;stroke-linecap:butt;stroke-linejoin:miter;stroke:rgb(0%,0%,0%);stroke-opacity:1;stroke-miterlimit:10;" d="M 104 8 L 120 8 L 120 32 L 104 32 Z "/>
<path style="fill-rule:nonzero;fill:rgb(100%,100%,80%);fill-opacity:1;stroke-width:1.3;stroke-linecap:butt;stroke-linejoin:miter;stroke:rgb(0%,0%,0%);stroke-opacity:1;stroke-miterlimit:10;" d="M 152 8 L 168 8 L 168 40 L 152 40 Z "/>
<path style="fill:none;stroke-width:1.3;stroke-linecap:butt;stroke-linejoin:miter;stroke:rgb(0%,0%,0%);stroke-opacity:1;stroke-miterlimit:10;" d="M 18 16 C 18 18.667969 14 18.667969 14 16 C 14 13.332031 18 13.332031 18 16 L 24 16 "/>
<path style="fill:none;stroke-width:1.3;stroke-linecap:butt;stroke-linejoin:miter;stroke:rgb(0%,0%,0%);stroke-opacity:1;stroke-miterlimit:10;" d="M 258 48 C 258 50.667969 254 50.667969 254 48 C 254 45.332031 258 45.332031 258 48 M 254 48 L 248 48 "/>
<path style="fill:none;stroke-width:1.3;stroke-linecap:butt;stroke-linejoin:miter;stroke:rgb(0%,0%,0%);stroke-opacity:1;stroke-miterlimit:10;" d="M 18 32 C 18 34.667969 14 34.667969 14 32 C 14 29.332031 18 29.332031 18 32 L 24 32 "/>
<path style="fill:none;stroke-width:1.3;stroke-linecap:butt;stroke-linejoin:miter;stroke:rgb(0%,0%,0%);stroke-opacity:1;stroke-miterlimit:10;" d="M 18 48 C 18 50.667969 14 50.667969 14 48 C 14 45.332031 18 45.332031 18 48 L 24 48 "/>
<path style="fill:none;stroke-width:1.3;stroke-linecap:butt;stroke-linejoin:miter;stroke:rgb(0%,0%,0%);stroke-opacity:1;stroke-miterlimit:10;" d="M 18 64 C 18 66.667969 14 66.667969 14 64 C 14 61.332031 18 61.332031 18 64 L 24 64 "/>
<path style="fill:none;stroke-width:1.3;stroke-linecap:butt;stroke-linejoin:miter;stroke:rgb(0%,0%,0%);stroke-opacity:1;stroke-miterlimit:10;" d="M 18 80 C 18 82.667969 14 82.667969 14 80 C 14 77.332031 18 77.332031 18 80 L 24 80 "/>
<path style="fill:none;stroke-width:1.3;stroke-linecap:butt;stroke-linejoin:miter;stroke:rgb(0%,0%,0%);stroke-opacity:1;stroke-miterlimit:10;" d="M 18 96 C 18 98.667969 14 98.667969 14 96 C 14 93.332031 18 93.332031 18 96 L 24 96 "/>
<path style="fill-rule:nonzero;fill:rgb(100%,100%,80%);fill-opacity:1;stroke-width:1.3;stroke-linecap:butt;stroke-linejoin:miter;stroke:rgb(0%,0%,0%);stroke-opacity:1;stroke-miterlimit:10;" d="M 56 8 L 72 8 L 72 32 L 56 32 Z "/>
<path style="fill:none;stroke-width:1.3;stroke-linecap:butt;stroke-linejoin:miter;stroke:rgb(0%,0%,0%);stroke-opacity:1;stroke-miterlimit:10;" d="M 18 112 C 18 114.667969 14 114.667969 14 112 C 14 109.332031 18 109.332031 18 112 L 24 112 "/>
<path style="fill-rule:nonzero;fill:rgb(100%,100%,80%);fill-opacity:1;stroke-width:1.3;stroke-linecap:butt;stroke-linejoin:miter;stroke:rgb(0%,0%,0%);stroke-opacity:1;stroke-miterlimit:10;" d="M 152 48 L 168 48 L 168 72 L 152 72 Z "/>
<path style="fill-rule:nonzero;fill:rgb(100%,100%,80%);fill-opacity:1;stroke-width:1.3;stroke-linecap:butt;stroke-linejoin:miter;stroke:rgb(0%,0%,0%);stroke-opacity:1;stroke-miterlimit:10;" d="M 104 40 L 120 40 L 120 64 L 104 64 Z "/>
<path style="fill-rule:nonzero;fill:rgb(100%,100%,80%);fill-opacity:1;stroke-width:1.3;stroke-linecap:butt;stroke-linejoin:miter;stroke:rgb(0%,0%,0%);stroke-opacity:1;stroke-miterlimit:10;" d="M 56 40 L 72 40 L 72 64 L 56 64 Z "/>
<path style="fill-rule:nonzero;fill:rgb(100%,100%,80%);fill-opacity:1;stroke-width:1.3;stroke-linecap:butt;stroke-linejoin:miter;stroke:rgb(0%,0%,0%);stroke-opacity:1;stroke-miterlimit:10;" d="M 200 24 L 216 24 L 216 56 L 200 56 Z "/>
<path style="fill-rule:nonzero;fill:rgb(100%,100%,80%);fill-opacity:1;stroke-width:1.3;stroke-linecap:butt;stroke-linejoin:miter;stroke:rgb(0%,0%,0%);stroke-opacity:1;stroke-miterlimit:10;" d="M 152 80 L 168 80 L 168 104 L 152 104 Z "/>
<path style="fill-rule:nonzero;fill:rgb(100%,100%,80%);fill-opacity:1;stroke-width:1.3;stroke-linecap:butt;stroke-linejoin:miter;stroke:rgb(0%,0%,0%);stroke-opacity:1;stroke-miterlimit:10;" d="M 104 72 L 120 72 L 120 96 L 104 96 Z "/>
<path style="fill-rule:nonzero;fill:rgb(100%,100%,80%);fill-opacity:1;stroke-width:1.3;stroke-linecap:butt;stroke-linejoin:miter;stroke:rgb(0%,0%,0%);stroke-opacity:1;stroke-miterlimit:10;" d="M 56 72 L 72 72 L 72 96 L 56 96 Z "/>
<path style="fill-rule:nonzero;fill:rgb(100%,100%,80%);fill-opacity:1;stroke-width:1.3;stroke-linecap:butt;stroke-linejoin:miter;stroke:rgb(0%,0%,0%);stroke-opacity:1;stroke-miterlimit:10;" d="M 200 64 L 216 64 L 216 96 L 200 96 Z "/>
<path style="fill-rule:nonzero;fill:rgb(100%,100%,80%);fill-opacity:1;stroke-width:1.3;stroke-linecap:butt;stroke-linejoin:miter;stroke:rgb(0%,0%,0%);stroke-opacity:1;stroke-miterlimit:10;" d="M 152 112 L 168 112 L 168 136 L 152 136 Z "/>
<path style="fill-rule:nonzero;fill:rgb(100%,100%,80%);fill-opacity:1;stroke-width:1.3;stroke-linecap:butt;stroke-linejoin:miter;stroke:rgb(0%,0%,0%);stroke-opacity:1;stroke-miterlimit:10;" d="M 104 104 L 120 104 L 120 128 L 104 128 Z "/>
<path style="fill-rule:nonzero;fill:rgb(100%,100%,80%);fill-opacity:1;stroke-width:1.3;stroke-linecap:butt;stroke-linejoin:miter;stroke:rgb(0%,0%,0%);stroke-opacity:1;stroke-miterlimit:10;" d="M 56 104 L 72 104 L 72 120 L 56 120 Z "/>
<path style="fill-rule:nonzero;fill:rgb(100%,100%,80%);fill-opacity:1;stroke-width:1.3;stroke-linecap:butt;stroke-linejoin:miter;stroke:rgb(0%,0%,0%);stroke-opacity:1;stroke-miterlimit:10;" d="M 200 104 L 216 104 L 216 136 L 200 136 Z "/>
<path style="fill:none;stroke-width:1.3;stroke-linecap:butt;stroke-linejoin:miter;stroke:rgb(56%,69%,85%);stroke-opacity:1;stroke-miterlimit:10;" d="M 120 16 L 152 24 "/>
<path style="fill:none;stroke-width:1.3;stroke-linecap:butt;stroke-linejoin:miter;stroke:rgb(56%,69%,85%);stroke-opacity:1;stroke-miterlimit:10;" d="M 168 16 L 200 16 "/>
<path style="fill:none;stroke-width:1.3;stroke-linecap:butt;stroke-linejoin:miter;stroke:rgb(56%,69%,85%);stroke-opacity:1;stroke-miterlimit:10;" d="M 24 16 L 56 24 "/>
<path style="fill:none;stroke-width:1.3;stroke-linecap:butt;stroke-linejoin:miter;stroke:rgb(56%,69%,85%);stroke-opacity:1;stroke-miterlimit:10;" d="M 24 16 L 56 56 "/>
<path style="fill:none;stroke-width:1.3;stroke-linecap:butt;stroke-linejoin:miter;stroke:rgb(56%,69%,85%);stroke-opacity:1;stroke-miterlimit:10;" d="M 24 16 L 56 80 "/>
<path style="fill:none;stroke-width:1.3;stroke-linecap:butt;stroke-linejoin:miter;stroke:rgb(56%,69%,85%);stroke-opacity:1;stroke-miterlimit:10;" d="M 24 16 L 56 112 "/>
<path style="fill:none;stroke-width:1.3;stroke-linecap:butt;stroke-linejoin:miter;stroke:rgb(56%,69%,85%);stroke-opacity:1;stroke-miterlimit:10;" d="M 24 32 L 56 16 "/>
<path style="fill:none;stroke-width:1.3;stroke-linecap:butt;stroke-linejoin:miter;stroke:rgb(56%,69%,85%);stroke-opacity:1;stroke-miterlimit:10;" d="M 24 48 L 104 88 "/>
<path style="fill:none;stroke-width:1.3;stroke-linecap:butt;stroke-linejoin:miter;stroke:rgb(56%,69%,85%);stroke-opacity:1;stroke-miterlimit:10;" d="M 24 48 L 56 88 "/>
<path style="fill:none;stroke-width:1.3;stroke-linecap:butt;stroke-linejoin:miter;stroke:rgb(56%,69%,85%);stroke-opacity:1;stroke-miterlimit:10;" d="M 24 64 L 104 48 "/>
<path style="fill:none;stroke-width:1.3;stroke-linecap:butt;stroke-linejoin:miter;stroke:rgb(56%,69%,85%);stroke-opacity:1;stroke-miterlimit:10;" d="M 24 64 L 56 48 "/>
<path style="fill:none;stroke-width:1.3;stroke-linecap:butt;stroke-linejoin:miter;stroke:rgb(56%,69%,85%);stroke-opacity:1;stroke-miterlimit:10;" d="M 24 80 L 200 32 "/>
<path style="fill:none;stroke-width:1.3;stroke-linecap:butt;stroke-linejoin:miter;stroke:rgb(56%,69%,85%);stroke-opacity:1;stroke-miterlimit:10;" d="M 24 80 L 200 72 "/>
<path style="fill:none;stroke-width:1.3;stroke-linecap:butt;stroke-linejoin:miter;stroke:rgb(56%,69%,85%);stroke-opacity:1;stroke-miterlimit:10;" d="M 24 80 L 200 112 "/>
<path style="fill:none;stroke-width:1.3;stroke-linecap:butt;stroke-linejoin:miter;stroke:rgb(56%,69%,85%);stroke-opacity:1;stroke-miterlimit:10;" d="M 24 80 L 152 16 "/>
<path style="fill:none;stroke-width:1.3;stroke-linecap:butt;stroke-linejoin:miter;stroke:rgb(56%,69%,85%);stroke-opacity:1;stroke-miterlimit:10;" d="M 24 96 L 104 120 "/>
<path style="fill:none;stroke-width:1.3;stroke-linecap:butt;stroke-linejoin:miter;stroke:rgb(56%,69%,85%);stroke-opacity:1;stroke-miterlimit:10;" d="M 24 96 L 104 24 "/>
<path style="fill:none;stroke-width:1.3;stroke-linecap:butt;stroke-linejoin:miter;stroke:rgb(56%,69%,85%);stroke-opacity:1;stroke-miterlimit:10;" d="M 72 16 L 152 56 "/>
<path style="fill:none;stroke-width:1.3;stroke-linecap:butt;stroke-linejoin:miter;stroke:rgb(56%,69%,85%);stroke-opacity:1;stroke-miterlimit:10;" d="M 24 112 L 200 48 "/>
<path style="fill:none;stroke-width:1.3;stroke-linecap:butt;stroke-linejoin:miter;stroke:rgb(56%,69%,85%);stroke-opacity:1;stroke-miterlimit:10;" d="M 24 112 L 200 88 "/>
<path style="fill:none;stroke-width:1.3;stroke-linecap:butt;stroke-linejoin:miter;stroke:rgb(56%,69%,85%);stroke-opacity:1;stroke-miterlimit:10;" d="M 24 112 L 200 128 "/>
<path style="fill:none;stroke-width:1.3;stroke-linecap:butt;stroke-linejoin:miter;stroke:rgb(56%,69%,85%);stroke-opacity:1;stroke-miterlimit:10;" d="M 24 112 L 152 32 "/>
<path style="fill:none;stroke-width:1.3;stroke-linecap:butt;stroke-linejoin:miter;stroke:rgb(56%,69%,85%);stroke-opacity:1;stroke-miterlimit:10;" d="M 168 56 L 200 40 "/>
<path style="fill:none;stroke-width:1.3;stroke-linecap:butt;stroke-linejoin:miter;stroke:rgb(56%,69%,85%);stroke-opacity:1;stroke-miterlimit:10;" d="M 120 48 L 152 64 "/>
<path style="fill:none;stroke-width:1.3;stroke-linecap:butt;stroke-linejoin:miter;stroke:rgb(56%,69%,85%);stroke-opacity:1;stroke-miterlimit:10;" d="M 72 48 L 152 88 "/>
<path style="fill:none;stroke-width:1.3;stroke-linecap:butt;stroke-linejoin:miter;stroke:rgb(56%,69%,85%);stroke-opacity:1;stroke-miterlimit:10;" d="M 216 32 L 248 48 "/>
<path style="fill:none;stroke-width:1.3;stroke-linecap:butt;stroke-linejoin:miter;stroke:rgb(56%,69%,85%);stroke-opacity:1;stroke-miterlimit:10;" d="M 168 88 L 200 80 "/>
<path style="fill:none;stroke-width:1.3;stroke-linecap:butt;stroke-linejoin:miter;stroke:rgb(56%,69%,85%);stroke-opacity:1;stroke-miterlimit:10;" d="M 120 80 L 152 96 "/>
<path style="fill:none;stroke-width:1.3;stroke-linecap:butt;stroke-linejoin:miter;stroke:rgb(56%,69%,85%);stroke-opacity:1;stroke-miterlimit:10;" d="M 72 80 L 152 120 "/>
<path style="fill:none;stroke-width:1.3;stroke-linecap:butt;stroke-linejoin:miter;stroke:rgb(56%,69%,85%);stroke-opacity:1;stroke-miterlimit:10;" d="M 216 72 L 248 16 "/>
<path style="fill:none;stroke-width:1.3;stroke-linecap:butt;stroke-linejoin:miter;stroke:rgb(56%,69%,85%);stroke-opacity:1;stroke-miterlimit:10;" d="M 168 120 L 200 120 "/>
<path style="fill:none;stroke-width:1.3;stroke-linecap:butt;stroke-linejoin:miter;stroke:rgb(56%,69%,85%);stroke-opacity:1;stroke-miterlimit:10;" d="M 120 112 L 152 128 "/>
<path style="fill:none;stroke-width:1.3;stroke-linecap:butt;stroke-linejoin:miter;stroke:rgb(56%,69%,85%);stroke-opacity:1;stroke-miterlimit:10;" d="M 72 112 L 104 56 "/>
<path style="fill:none;stroke-width:1.3;stroke-linecap:butt;stroke-linejoin:miter;stroke:rgb(56%,69%,85%);stroke-opacity:1;stroke-miterlimit:10;" d="M 72 112 L 104 80 "/>
<path style="fill:none;stroke-width:1.3;stroke-linecap:butt;stroke-linejoin:miter;stroke:rgb(56%,69%,85%);stroke-opacity:1;stroke-miterlimit:10;" d="M 72 112 L 104 112 "/>
<path style="fill:none;stroke-width:1.3;stroke-linecap:butt;stroke-linejoin:miter;stroke:rgb(56%,69%,85%);stroke-opacity:1;stroke-miterlimit:10;" d="M 72 112 L 104 16 "/>
<path style="fill:none;stroke-width:1.3;stroke-linecap:butt;stroke-linejoin:miter;stroke:rgb(56%,69%,85%);stroke-opacity:1;stroke-miterlimit:10;" d="M 216 112 L 248 32 "/>
</g>
</svg>
